<?xml version="1.0" encoding="UTF-8" standalone="no"?>
<!DOCTYPE svg PUBLIC "-//W3C//DTD SVG 1.1//EN"
 "http://www.w3.org/Graphics/SVG/1.1/DTD/svg11.dtd">
<!-- Generated by graphviz version 2.43.0 (0)
 -->
<!-- Title: %3 Pages: 1 -->
<svg width="340pt" height="479pt"
 viewBox="0.00 0.00 339.74 479.00" xmlns="http://www.w3.org/2000/svg" xmlns:xlink="http://www.w3.org/1999/xlink">
<g id="graph0" class="graph" transform="scale(1 1) rotate(0) translate(4 475)">
<title>%3</title>
<polygon fill="white" stroke="transparent" points="-4,4 -4,-475 335.74,-475 335.74,4 -4,4"/>
<!-- S_OP -->
<g id="node1" class="node">
<title>S_OP</title>
<ellipse fill="none" stroke="black" cx="245.74" cy="-453" rx="31.4" ry="18"/>
<text text-anchor="middle" x="245.74" y="-449.3" font-family="Times,serif" font-size="14.00">S_OP</text>
</g>
<!-- S_REG_SEL -->
<g id="node2" class="node">
<title>S_REG_SEL</title>
<ellipse fill="none" stroke="black" cx="156.74" cy="-366" rx="57.69" ry="18"/>
<text text-anchor="middle" x="156.74" y="-362.3" font-family="Times,serif" font-size="14.00">S_REG_SEL</text>
</g>
<!-- S_OP&#45;&gt;S_REG_SEL -->
<g id="edge1" class="edge">
<title>S_OP&#45;&gt;S_REG_SEL</title>
<path fill="none" stroke="black" d="M230.24,-437.19C216.72,-424.28 196.86,-405.32 181.2,-390.36"/>
<polygon fill="black" stroke="black" points="183.54,-387.75 173.89,-383.38 178.71,-392.81 183.54,-387.75"/>
<text text-anchor="middle" x="219.24" y="-405.8" font-family="Times,serif" font-size="14.00">btn8</text>
</g>
<!-- S_REG_EDIT -->
<g id="node3" class="node">
<title>S_REG_EDIT</title>
<ellipse fill="none" stroke="black" cx="61.74" cy="-279" rx="61.99" ry="18"/>
<text text-anchor="middle" x="61.74" y="-275.3" font-family="Times,serif" font-size="14.00">S_REG_EDIT</text>
</g>
<!-- S_REG_SEL&#45;&gt;S_REG_EDIT -->
<g id="edge7" class="edge">
<title>S_REG_SEL&#45;&gt;S_REG_EDIT</title>
<path fill="none" stroke="black" d="M117.21,-352.63C104.94,-347.24 92.18,-339.86 82.74,-330 76.54,-323.52 72.05,-314.94 68.85,-306.72"/>
<polygon fill="black" stroke="black" points="72.09,-305.38 65.56,-297.03 65.46,-307.63 72.09,-305.38"/>
<text text-anchor="middle" x="95.24" y="-318.8" font-family="Times,serif" font-size="14.00">btn9</text>
</g>
<!-- S_X_REG_SEL -->
<g id="node4" class="node">
<title>S_X_REG_SEL</title>
<ellipse fill="none" stroke="black" cx="209.74" cy="-279" rx="68.49" ry="18"/>
<text text-anchor="middle" x="209.74" y="-275.3" font-family="Times,serif" font-size="14.00">S_X_REG_SEL</text>
</g>
<!-- S_REG_SEL&#45;&gt;S_X_REG_SEL -->
<g id="edge2" class="edge">
<title>S_REG_SEL&#45;&gt;S_X_REG_SEL</title>
<path fill="none" stroke="black" d="M167.22,-348.21C174.79,-336.06 185.16,-319.43 193.76,-305.63"/>
<polygon fill="black" stroke="black" points="196.79,-307.39 199.11,-297.05 190.85,-303.68 196.79,-307.39"/>
<text text-anchor="middle" x="199.24" y="-318.8" font-family="Times,serif" font-size="14.00">btn8</text>
</g>
<!-- S_REG_EDIT&#45;&gt;S_REG_SEL -->
<g id="edge8" class="edge">
<title>S_REG_EDIT&#45;&gt;S_REG_SEL</title>
<path fill="none" stroke="black" d="M84.26,-296.1C91.9,-301.84 100.37,-308.49 107.74,-315 116.82,-323 126.24,-332.34 134.37,-340.77"/>
<polygon fill="black" stroke="black" points="132,-343.35 141.43,-348.18 137.07,-338.53 132,-343.35"/>
<text text-anchor="middle" x="136.24" y="-318.8" font-family="Times,serif" font-size="14.00">btn9</text>
</g>
<!-- S_Y_REG_SEL -->
<g id="node5" class="node">
<title>S_Y_REG_SEL</title>
<ellipse fill="none" stroke="black" cx="206.74" cy="-192" rx="68.49" ry="18"/>
<text text-anchor="middle" x="206.74" y="-188.3" font-family="Times,serif" font-size="14.00">S_Y_REG_SEL</text>
</g>
<!-- S_X_REG_SEL&#45;&gt;S_Y_REG_SEL -->
<g id="edge3" class="edge">
<title>S_X_REG_SEL&#45;&gt;S_Y_REG_SEL</title>
<path fill="none" stroke="black" d="M209.14,-260.8C208.73,-249.16 208.18,-233.55 207.71,-220.24"/>
<polygon fill="black" stroke="black" points="211.2,-220.05 207.35,-210.18 204.21,-220.29 211.2,-220.05"/>
<text text-anchor="middle" x="221.24" y="-231.8" font-family="Times,serif" font-size="14.00">btn8</text>
</g>
<!-- S_RES_REG_SEL -->
<g id="node6" class="node">
<title>S_RES_REG_SEL</title>
<ellipse fill="none" stroke="black" cx="200.74" cy="-105" rx="77.99" ry="18"/>
<text text-anchor="middle" x="200.74" y="-101.3" font-family="Times,serif" font-size="14.00">S_RES_REG_SEL</text>
</g>
<!-- S_Y_REG_SEL&#45;&gt;S_RES_REG_SEL -->
<g id="edge4" class="edge">
<title>S_Y_REG_SEL&#45;&gt;S_RES_REG_SEL</title>
<path fill="none" stroke="black" d="M205.53,-173.8C204.71,-162.16 203.61,-146.55 202.67,-133.24"/>
<polygon fill="black" stroke="black" points="206.15,-132.9 201.96,-123.18 199.17,-133.4 206.15,-132.9"/>
<text text-anchor="middle" x="217.24" y="-144.8" font-family="Times,serif" font-size="14.00">btn8</text>
</g>
<!-- S_RES -->
<g id="node7" class="node">
<title>S_RES</title>
<ellipse fill="none" stroke="black" cx="253.74" cy="-18" rx="36.29" ry="18"/>
<text text-anchor="middle" x="253.74" y="-14.3" font-family="Times,serif" font-size="14.00">S_RES</text>
</g>
<!-- S_RES_REG_SEL&#45;&gt;S_RES -->
<g id="edge5" class="edge">
<title>S_RES_REG_SEL&#45;&gt;S_RES</title>
<path fill="none" stroke="black" d="M211.47,-86.8C219.16,-74.46 229.64,-57.66 238.24,-43.86"/>
<polygon fill="black" stroke="black" points="241.25,-45.65 243.57,-35.31 235.31,-41.94 241.25,-45.65"/>
<text text-anchor="middle" x="243.24" y="-57.8" font-family="Times,serif" font-size="14.00">btn8</text>
</g>
<!-- S_RES&#45;&gt;S_OP -->
<g id="edge6" class="edge">
<title>S_RES&#45;&gt;S_OP</title>
<path fill="none" stroke="black" d="M270.51,-34.16C286.04,-49.93 306.74,-76.18 306.74,-104 306.74,-367 306.74,-367 306.74,-367 306.74,-392.44 288.48,-415.49 271.94,-431.15"/>
<polygon fill="black" stroke="black" points="269.16,-428.94 264.05,-438.22 273.83,-434.15 269.16,-428.94"/>
<text text-anchor="middle" x="319.24" y="-231.8" font-family="Times,serif" font-size="14.00">btn8</text>
</g>
</g>
</svg>
